<svg width="91" height="72" viewBox="0 0 91 72" fill="none" xmlns="http://www.w3.org/2000/svg">
<path d="M79.9758 0H11.0242C4.91079 0 0 4.9 0 11V19.4V60.6C0 66.7 4.91079 71.6 11.0242 71.6H79.9758C86.0892 71.6 91 66.7 91 60.6V19.4V11C91 5 86.0892 0 79.9758 0ZM86.9912 60.6C86.9912 64.5 83.8844 67.6 79.9758 67.6H11.0242C7.11564 67.6 4.00881 64.5 4.00881 60.6V19.4H86.9912V60.6ZM86.9912 15.4H4.00881V11C4.00881 7.1 7.11564 4 11.0242 4H79.9758C83.8844 4 86.9912 7.1 86.9912 11V15.4Z" fill="#0072DA"/>
<path d="M10.1223 13.2C12.0042 13.2 13.5298 11.6778 13.5298 9.80002C13.5298 7.92226 12.0042 6.40002 10.1223 6.40002C8.24037 6.40002 6.71478 7.92226 6.71478 9.80002C6.71478 11.6778 8.24037 13.2 10.1223 13.2Z" fill="#0072DA"/>
<path d="M20.4449 13.2C22.3268 13.2 23.8524 11.6778 23.8524 9.80002C23.8524 7.92226 22.3268 6.40002 20.4449 6.40002C18.563 6.40002 17.0374 7.92226 17.0374 9.80002C17.0374 11.6778 18.563 13.2 20.4449 13.2Z" fill="#0072DA"/>
<path d="M30.8678 13.2C32.7497 13.2 34.2753 11.6778 34.2753 9.80002C34.2753 7.92226 32.7497 6.40002 30.8678 6.40002C28.9859 6.40002 27.4603 7.92226 27.4603 9.80002C27.4603 11.6778 28.9859 13.2 30.8678 13.2Z" fill="#0072DA"/>
<path d="M14.131 56.7C14.5319 57.1 15.033 57.3 15.5341 57.3C16.0352 57.3 16.5363 57.1 16.9372 56.7L29.7654 43.9C30.1663 43.5 30.3667 43 30.3667 42.5C30.3667 42 30.1663 41.5 29.7654 41.1L16.9372 28.3C16.1355 27.5 14.9328 27.5 14.131 28.3C13.3293 29.1 13.3293 30.3 14.131 31.1L25.4559 42.5L14.131 53.9C13.3293 54.7 13.3293 55.9 14.131 56.7Z" fill="#59A5BB"/>
<path d="M38.2842 44.5H58.5287C59.6311 44.5 60.5331 43.6 60.5331 42.5C60.5331 41.4 59.6311 40.5 58.5287 40.5H38.2842C37.1817 40.5 36.2798 41.4 36.2798 42.5C36.2798 43.6 37.1817 44.5 38.2842 44.5Z" fill="#59A5BB"/>
</svg>
