<svg width="90" height="90" viewBox="0 0 90 90" fill="none" xmlns="http://www.w3.org/2000/svg">
<path d="M88.3236 1.49688C87.201 0.561331 84.2072 0 79.3423 0C69.7997 0 57.0762 2.24532 49.966 8.60707C49.7789 8.60707 49.7789 8.79418 49.5918 8.79418L41.1718 17.2141L20.5897 18.8981C20.2155 18.8981 19.6542 19.0852 19.467 19.4595L0.568912 38.5447C0.0075814 39.106 -0.179529 39.8545 0.194692 40.6029C0.381802 41.1642 1.13024 41.7256 1.87868 41.7256L16.6604 42.0998L10.4858 48.2744C10.1115 48.6486 9.92442 49.0229 9.92442 49.5842C9.92442 50.1455 10.1115 50.5198 10.4858 50.894L13.1053 53.7006L8.61465 63.6175C8.24043 64.3659 8.42754 65.1143 8.98887 65.6757L24.1448 80.8316C24.519 81.2058 24.8932 81.3929 25.4546 81.3929C25.6417 81.3929 26.0159 81.3929 26.203 81.2058L35.9327 76.7152L38.7394 79.5218C39.1136 79.8961 39.4878 80.0832 40.0492 80.0832C40.6105 80.0832 40.9847 79.8961 41.3589 79.5218L47.5336 73.3472L47.9078 88.1289C47.9078 88.8773 48.4691 89.6258 49.0305 89.8129C49.2176 89.8129 49.4047 90 49.7789 90C50.3402 90 50.7145 89.8129 51.0887 89.4387L69.9868 70.5405C70.361 70.1663 70.5481 69.7921 70.5481 69.4179L72.2321 48.6487L80.6521 40.2287C80.8392 40.0416 80.8392 40.0416 80.8392 39.8545C90.9432 28.815 91.1303 4.30353 88.3236 1.49688ZM6.18222 37.9834L21.5253 22.6403L37.0554 21.3306L20.0284 38.3576L6.18222 37.9834ZM25.8288 77.0894L12.544 63.8046L15.912 56.5073L33.1261 73.7214L25.8288 77.0894ZM67.1802 68.1081L51.8371 83.4511L51.4629 69.605L68.4899 52.578L67.1802 68.1081ZM78.2197 37.422L78.0325 37.6092L40.2363 75.4054L14.228 49.5842L52.2113 11.7879L52.3984 11.6008C58.5731 5.80042 70.5481 3.7422 79.3423 3.7422C82.7103 3.7422 84.7685 4.11642 85.517 4.30353C86.6396 7.85863 86.6396 28.2536 78.2197 37.422Z" fill="#0072DA"/>
<path d="M17.5959 79.1476L13.1053 83.6382C12.3568 84.3867 12.3568 85.5093 13.1053 86.2578C13.4795 86.632 14.0408 86.8191 14.415 86.8191C14.7893 86.8191 15.3506 86.632 15.7248 86.2578L20.2155 81.7671C20.9639 81.0187 20.9639 79.896 20.2155 79.1476C19.467 78.3991 18.1573 78.3991 17.5959 79.1476Z" fill="#59A5BB"/>
<path d="M15.3507 74.47C14.6023 73.7216 13.4796 73.7216 12.7312 74.47L6.36944 80.8318C5.621 81.5802 5.621 82.7029 6.36944 83.4513C6.74366 83.8255 7.30499 84.0126 7.67921 84.0126C8.05343 84.0126 8.61476 83.8255 8.98898 83.4513L15.3507 77.0896C16.0992 76.3411 16.0992 75.0314 15.3507 74.47Z" fill="#59A5BB"/>
<path d="M10.6729 72.2246C11.4214 71.4761 11.4214 70.3535 10.6729 69.605C9.9245 68.8566 8.80184 68.8566 8.05339 69.605L3.56275 74.0957C2.81431 74.8441 2.81431 75.9668 3.56275 76.7152C3.93697 77.0894 4.4983 77.2765 4.87252 77.2765C5.24674 77.2765 5.80807 77.0894 6.18229 76.7152L10.6729 72.2246Z" fill="#59A5BB"/>
<path d="M65.3091 12.9105C62.3153 12.9105 59.3216 14.0331 57.0762 16.2784C54.8309 18.5238 53.7083 21.3304 53.7083 24.5113C53.7083 27.6922 54.8309 30.4988 57.0762 32.7441C59.3216 34.9895 62.1282 36.1121 65.3091 36.1121C68.3029 36.1121 71.2966 34.9895 73.5419 32.7441C78.0326 28.2535 78.0326 20.9562 73.5419 16.4656C71.2966 14.0331 68.49 12.9105 65.3091 12.9105ZM70.9224 29.9375C69.4255 31.4344 67.5544 32.1828 65.4962 32.1828C63.438 32.1828 61.3798 31.4344 60.07 29.9375C58.5731 28.4406 57.8247 26.5695 57.8247 24.5113C57.8247 22.4531 58.5731 20.3949 60.07 19.0851C61.5669 17.5882 63.438 16.8398 65.4962 16.8398C67.5544 16.8398 69.6126 17.5882 70.9224 19.0851C73.9162 21.8918 73.9162 26.9437 70.9224 29.9375Z" fill="#59A5BB"/>
</svg>
