<svg width="91" height="91" viewBox="0 0 91 91" fill="none" xmlns="http://www.w3.org/2000/svg">
<path d="M88.0678 0.0774263L75.8333 2.29998C75.7322 1.69383 75.4289 1.08768 74.9233 0.582552C74.3167 0.0774263 73.6089 -0.124624 72.9011 0.0774263L50.6567 4.11843L47.32 0.784602C46.7133 0.178451 45.8033 -0.124624 44.9944 0.0774263L2.02222 10.1799C0.808889 10.483 0 11.4933 0 12.7056V78.3719C0 79.5842 0.91 80.5944 2.12333 80.8975L57.7344 91C57.8356 91 58.0378 91 58.1389 91C58.7456 91 59.2511 90.7979 59.7567 90.3938C60.2622 89.9897 60.5656 89.3836 60.6667 88.6764L72.9011 91C73.0022 91 73.2044 91 73.3056 91C73.9122 91 74.4178 90.7979 74.9233 90.3938C75.4289 89.9897 75.7322 89.3836 75.8333 88.6764L88.0678 91C88.1689 91 88.3711 91 88.4722 91C89.0789 91 89.5844 90.7979 90.09 90.3938C90.6967 89.8887 91 89.1815 91 88.4744V2.60305C91 1.89588 90.6967 1.1887 90.09 0.683577C89.4833 0.178451 88.7756 -0.0235988 88.0678 0.0774263ZM45.5 6.13893L54.6 15.2312H45.5V6.13893ZM55.6111 85.4436L5.05556 76.2503V14.7261L40.4444 6.44201V17.8578C40.4444 19.2722 41.5567 20.3835 42.9722 20.3835H55.6111V85.4436ZM70.7778 85.4436L60.6667 83.6252V15.2312C60.6667 14.524 60.3633 13.9179 59.9589 13.4127L55.0044 8.46251L70.7778 5.63381V85.4436ZM85.9445 85.4436L75.8333 83.6252V7.45226L85.9445 5.63381V85.4436Z" fill="#0072DA"/>
<path d="M48.0278 35.4362H12.6389C11.2233 35.4362 10.1111 36.5475 10.1111 37.9618C10.1111 39.3762 11.2233 40.4875 12.6389 40.4875H48.0278C49.4433 40.4875 50.5556 39.3762 50.5556 37.9618C50.5556 36.5475 49.4433 35.4362 48.0278 35.4362Z" fill="#59A5BB"/>
<path d="M10.1111 27.9604C10.1111 29.2737 11.3244 30.385 12.6389 30.385H12.74L48.1289 29.0717C49.5444 29.0717 50.6567 27.8594 50.5556 26.445C50.4544 25.0307 49.3422 23.9194 47.9267 24.0204L12.5378 25.3337C11.1222 25.4348 10.1111 26.546 10.1111 27.9604Z" fill="#59A5BB"/>
<path d="M48.1289 46.8521L12.74 45.5387C11.3244 45.4377 10.2122 46.549 10.1111 47.9633C10.01 49.3777 11.1222 50.489 12.5378 50.59L47.9267 51.9033H48.0278C49.3422 51.9033 50.4544 50.792 50.5556 49.4787C50.5556 48.0644 49.5444 46.8521 48.1289 46.8521Z" fill="#59A5BB"/>
<path d="M48.23 58.1669L12.8411 55.6412C11.4256 55.5402 10.2122 56.5505 10.1111 57.9648C10.01 59.3792 11.0211 60.5915 12.4367 60.6925L47.8256 63.2181C47.9267 63.2181 47.9267 63.2181 48.0278 63.2181C49.3422 63.2181 50.4544 62.2079 50.5556 60.8945C50.6567 59.4802 49.6456 58.2679 48.23 58.1669Z" fill="#59A5BB"/>
<path d="M48.3311 69.5827L12.9422 65.7437C11.5267 65.6427 10.3133 66.5519 10.1111 67.9663C9.90889 69.3806 10.92 70.5929 12.3356 70.795L47.7244 74.6339C47.8256 74.6339 47.9267 74.6339 48.0278 74.6339C49.3422 74.6339 50.3533 73.6237 50.5556 72.4114C50.6567 70.896 49.6456 69.6837 48.3311 69.5827Z" fill="#59A5BB"/>
</svg>
