<svg xmlns="http://www.w3.org/2000/svg" xmlns:xlink="http://www.w3.org/1999/xlink" viewBox="0 0 120.01 70.29"><defs><style>.cls-1{fill:none;}.cls-2{clip-path:url(#clip-path);}.cls-3{fill:#ee3124;}.cls-4{fill:#fff;}</style><clipPath id="clip-path"><polyline class="cls-1" points="0.01 70.29 120.01 70.29 120.01 0 0.01 0 0.01 70.29"/></clipPath></defs><title>fab-logo-reversal</title><g id="Layer_2" data-name="Layer 2"><g id="Layer_1-2" data-name="Layer 1"><g class="cls-2"><path class="cls-3" d="M120,0,86.22,18.52H99.75a46.66,46.66,0,0,0,3.8,46.12C99.52,40.49,109.39,17.1,120,0"/><polyline class="cls-4" points="0 63.42 3.92 63.42 3.92 64.35 1.13 64.35 1.13 66.22 3.63 66.22 3.63 67.1 1.13 67.1 1.13 70.2 0 70.2"/></g><path class="cls-4" d="M4.64,63.29a.7.7,0,1,1,.7.68.69.69,0,0,1-.7-.68m.14,6.91V64.88h1.1V70.2Z"/><path class="cls-4" d="M7,64.88H8.11v.55a1.7,1.7,0,0,1,1.34-.64,1.5,1.5,0,0,1,.44.07v1a1.83,1.83,0,0,0-.55-.08,1.72,1.72,0,0,0-1.22.45v4H7"/><path class="cls-4" d="M10.27,70v-.87a4,4,0,0,0,1.47.32c.7,0,1-.23,1-.72s-.34-.57-1-.8-1.51-.64-1.51-1.59.78-1.54,1.91-1.54a3.81,3.81,0,0,1,1.34.23v.88a3.49,3.49,0,0,0-1.3-.26c-.61,0-.9.22-.9.61s.27.54,1,.76,1.57.59,1.57,1.64-.79,1.64-1.95,1.64a4.21,4.21,0,0,1-1.64-.3"/><path class="cls-4" d="M14.8,68.76V65.68h-.73v-.8h.74l.2-1.42h.89v1.42h1.22v.8H15.9V68.6c0,.56.2.79.69.79a1.73,1.73,0,0,0,.67-.13v.87a2.67,2.67,0,0,1-.92.16c-1,0-1.54-.42-1.54-1.53"/><path class="cls-4" d="M22.36,63.42h1.3L26.1,70.2H24.86l-.52-1.58h-2.8L21,70.2H19.84M24,67.7l-.65-2c-.15-.46-.34-1-.41-1.34h0c-.08.32-.27.88-.42,1.34l-.69,2Z"/><path class="cls-4" d="M26.71,69.93V62.8h1.1v2.49a1.77,1.77,0,0,1,1.29-.5c1.54,0,2.17,1.21,2.17,2.7a2.57,2.57,0,0,1-2.64,2.8,5.56,5.56,0,0,1-1.92-.36m3.4-2.39c0-1.05-.33-1.85-1.35-1.85a1.51,1.51,0,0,0-1,.32V69.3a3.09,3.09,0,0,0,.84.12c1,0,1.46-.81,1.46-1.88"/><path class="cls-4" d="M32,68.4V64.88h1.08v3.35c0,.74.23,1.18,1,1.18A2.11,2.11,0,0,0,35.22,69V64.88h1.1V70.2H35.23v-.42a2.45,2.45,0,0,1-1.47.51c-1.3,0-1.73-.81-1.73-1.89"/><path class="cls-4" d="M39.9,63.42h2.19c2.33,0,3.22,1.63,3.22,3.39a3.08,3.08,0,0,1-3.25,3.39H39.9m2-.94c1.77,0,2.21-1.14,2.21-2.45s-.42-2.48-2.15-2.48H41v4.93Z"/><path class="cls-4" d="M46.28,62.8h1.08v2.5a2.41,2.41,0,0,1,1.47-.51c1.3,0,1.74.8,1.74,1.88V70.2H49.48V66.85c0-.74-.22-1.18-1-1.18a2,2,0,0,0-1.08.37V70.2h-1.1"/><path class="cls-4" d="M54.3,69.69a1.83,1.83,0,0,1-1.39.6,1.49,1.49,0,0,1-1.67-1.51c0-1.09.93-1.63,2.4-1.63l.52,0v-.42c0-.76-.31-1.08-1.09-1.08a3.35,3.35,0,0,0-1.34.31v-.9a4.22,4.22,0,0,1,1.54-.29c1.25,0,2,.53,2,1.77V69c0,.34.15.45.39.45l.2,0v.77a1.55,1.55,0,0,1-.62.12.92.92,0,0,1-.93-.6m-.14-.59V67.86h-.41c-.91,0-1.4.25-1.4.85s.33.76.87.76a1.35,1.35,0,0,0,.94-.36"/><path class="cls-4" d="M56.43,69.93V62.8h1.1v2.49a1.77,1.77,0,0,1,1.29-.5c1.54,0,2.17,1.21,2.17,2.7a2.57,2.57,0,0,1-2.64,2.8,5.56,5.56,0,0,1-1.92-.36m3.4-2.39c0-1.05-.33-1.85-1.35-1.85a1.51,1.51,0,0,0-.95.32V69.3a3.09,3.09,0,0,0,.84.12c1,0,1.46-.81,1.46-1.88"/><path class="cls-4" d="M61.65,63.29a.7.7,0,1,1,.7.68.69.69,0,0,1-.7-.68m.15,6.91V64.88h1.1V70.2Z"/><path class="cls-4" d="M66.8,63.42h2.33c1.41,0,2.15.68,2.15,1.72a1.5,1.5,0,0,1-1.1,1.49v0a1.55,1.55,0,0,1,1.32,1.59c0,1.19-.87,2-2.3,2H66.8M69,66.26c.79,0,1.15-.36,1.15-1s-.35-.94-1.14-.94H67.94v1.94Zm0,3c.8,0,1.23-.38,1.23-1.09s-.4-1.13-1.21-1.13H67.94V69.3Z"/><path class="cls-4" d="M75.19,69.69a1.83,1.83,0,0,1-1.39.6,1.49,1.49,0,0,1-1.67-1.51c0-1.09.93-1.63,2.4-1.63l.52,0v-.42c0-.76-.31-1.08-1.09-1.08a3.26,3.26,0,0,0-1.34.31v-.9a4.16,4.16,0,0,1,1.53-.29c1.26,0,2,.53,2,1.77V69c0,.34.15.45.39.45l.19,0v.77a1.51,1.51,0,0,1-.62.12.92.92,0,0,1-.92-.6m-.14-.59V67.86h-.42c-.9,0-1.39.25-1.39.85s.33.76.87.76a1.35,1.35,0,0,0,.94-.36"/><path class="cls-4" d="M77.34,64.88h1.08v.42a2.38,2.38,0,0,1,1.47-.51c1.3,0,1.74.81,1.74,1.88V70.2h-1.1V66.85c0-.74-.21-1.18-1-1.18a2,2,0,0,0-1.08.37V70.2h-1.1"/><path class="cls-4" d="M85.32,69.5l-1.52-2V70.2H82.7V62.8h1.1v4.41l1.89-2.33h1.2l-2,2.39,1.4,1.79a.62.62,0,0,0,.55.32H87v.83a1.27,1.27,0,0,1-.32,0,1.48,1.48,0,0,1-1.34-.74"/><g class="cls-2"><polyline class="cls-4" points="0 18.52 23.3 18.52 23.3 25.41 8.36 25.41 8.36 34.25 21.66 34.25 21.66 40.6 8.36 40.6 8.36 56.52 0 56.52"/></g><path class="cls-4" d="M43.41,42.25l-3.17-9.76c-.74-2.26-1.47-4.46-1.89-6.23h-.13c-.48,1.71-1.22,4-1.95,6.23L33,42.25m.91-23.73h9.34l13.9,38H48L45.6,49H30.78l-2.56,7.56h-8.6Z"/><path class="cls-4" d="M73.41,50c3.72,0,5.74-1.7,5.74-5.06s-1.89-5.19-5.67-5.19H68.23V50m5-16C77,34,78.6,32.3,78.6,29.37,78.6,26.75,77,25,73.29,25H68.23v9ZM59.87,18.52H74.33c8.23,0,12.69,3.9,12.69,9.7a8.3,8.3,0,0,1-6,8.41v.13c4.09.91,7.14,3.78,7.14,8.72,0,7-5.25,11-13.49,11H59.87Z"/><g class="cls-2"><path class="cls-4" d="M4.45,2.74H3.67c-.09,0-.14,0-.14.13V9.6a1.21,1.21,0,0,1-.36.88,1.22,1.22,0,0,1-.88.37,1.23,1.23,0,0,1-.88-.37,1.21,1.21,0,0,1-.36-.88V7.12A.12.12,0,0,0,.92,7H.13C0,7,0,7,0,7.12V9.6a2.2,2.2,0,0,0,.67,1.62,2.2,2.2,0,0,0,1.62.67,2.2,2.2,0,0,0,1.62-.67A2.2,2.2,0,0,0,4.58,9.6V2.87l-.13-.13"/></g><path class="cls-4" d="M7.87,5a2.16,2.16,0,0,0-1.58.66,2.13,2.13,0,0,0-.66,1.58v.73a2.17,2.17,0,0,0,.66,1.59,2.19,2.19,0,0,0,1.58.65H9.06a1,1,0,0,1-.33.7,1,1,0,0,1-.72.3H6.83a.12.12,0,0,0-.13.13v.78l.13.14H8a2.13,2.13,0,0,0,2.1-2.1V7.19A2.24,2.24,0,0,0,7.87,5M9.06,9.12H7.87A1.12,1.12,0,0,1,7,8.76a1.15,1.15,0,0,1-.35-.84V7.19A1.15,1.15,0,0,1,7,6.35a1.18,1.18,0,0,1,1.68,0,1.11,1.11,0,0,1,.35.84Z"/><path class="cls-4" d="M16.06,2.74h-.78l-.13.13V8.33a.86.86,0,0,1-.18.61.93.93,0,0,1-.61.17H11.28c-.08,0-.12.05-.12.14V10l.13.13h3.07a1.82,1.82,0,0,0,1.35-.49,1.78,1.78,0,0,0,.49-1.34V2.87l-.14-.13"/><path class="cls-4" d="M12.79,3.53l-.13.13V8.5l.13.13h.78a.12.12,0,0,0,.14-.13V3.66c0-.09-.05-.13-.14-.13"/><path class="cls-4" d="M12.23,2.93h1.92l.1-.1V2.52l-.1-.11H13V1.83a.33.33,0,0,1,.1-.24.37.37,0,0,1,.24-.1.3.3,0,0,1,.3.21l.06.14.06.06h.08l.29-.13.07-.08V1.64l-.07-.15A.78.78,0,0,0,13.38,1a.82.82,0,0,0-.61.25.82.82,0,0,0-.25.61v.58h-.29l-.11.11v.31l.11.1"/><path class="cls-4" d="M18.16,2.74h-.78c-.09,0-.13,0-.13.14V10c0,.09,0,.13.13.13h.78l.13-.13V2.88c0-.09,0-.14-.13-.14"/><path class="cls-4" d="M26.11,12.39h-.72c-.09,0-.13,0-.13.13v.76c0,.09,0,.14.13.14h.72l.13-.14v-.76l-.13-.13"/><polyline class="cls-4" points="24.54 12.39 23.82 12.39 23.69 12.52 23.69 13.28 23.82 13.41 24.54 13.41 24.67 13.28 24.67 12.52 24.54 12.39"/><path class="cls-4" d="M39.51,11.08h-.72l-.13.13V12c0,.09,0,.14.13.14h.72c.09,0,.13,0,.13-.14v-.76l-.13-.13"/><path class="cls-4" d="M45.33,5A4.49,4.49,0,0,0,42.79,6.1V2.88c0-.09,0-.14-.13-.14h-.79a.12.12,0,0,0-.13.14V9.11H40.17a.69.69,0,0,1-.46-.1l0-.13V5.28c0-.09,0-.13-.13-.13h-.79l-.12.13V8.75a.44.44,0,0,1-.08.29.41.41,0,0,1-.27.07h-8V6.75a1.77,1.77,0,0,0-.53-1.28,1.81,1.81,0,0,0-2.54,0,1.76,1.76,0,0,0-.52,1.28v3.61h-2.9a1.25,1.25,0,0,1-.89-.36,1.28,1.28,0,0,1-.17-1.56A1.3,1.3,0,0,1,23.19,8l.35-.18.08-.1,0-.07-.35-.7-.08-.07h0l-.06,0L22.72,7a2.36,2.36,0,0,0-1.28,2.08,2.25,2.25,0,0,0,.67,1.63,2.22,2.22,0,0,0,1.6.67h3.45a.49.49,0,0,0,.37-.16.5.5,0,0,0,.15-.37V6.75a.73.73,0,0,1,.22-.54A.77.77,0,0,1,28.43,6a.75.75,0,0,1,.75.76V9.64a.47.47,0,0,0,.16.37.5.5,0,0,0,.37.15h8.56a1.37,1.37,0,0,0,1-.34,1.67,1.67,0,0,0,1.12.34h5.31A1.81,1.81,0,0,0,47,9.67a1.83,1.83,0,0,0,.48-1.35V7.38a2.54,2.54,0,0,0-.6-1.76A2,2,0,0,0,45.33,5m1.13,3.37a.8.8,0,0,1-.19.61.8.8,0,0,1-.6.18H42.79V7.43a4.87,4.87,0,0,1,1.29-1A2.78,2.78,0,0,1,45.33,6a1,1,0,0,1,.94.53,1.72,1.72,0,0,1,.19.85Z"/><path class="cls-4" d="M44.59,4.06h.72l.13-.13V3.17c0-.09,0-.14-.13-.14h-.72c-.09,0-.13.05-.13.14v.76l.13.13"/><path class="cls-4" d="M60.25,5.15h-.79l-.13.13V8.75a.44.44,0,0,1-.08.29.42.42,0,0,1-.29.08H53V7.19a2.13,2.13,0,0,0-.66-1.58A2.16,2.16,0,0,0,50.79,5a2.13,2.13,0,0,0-1.58.66,2.13,2.13,0,0,0-.66,1.58v.73a2.24,2.24,0,0,0,2.24,2.24H52a1.05,1.05,0,0,1-.33.7,1,1,0,0,1-.72.3H49.75c-.09,0-.13,0-.13.13v.78l.13.14h1.18a2,2,0,0,0,1.45-.61A2,2,0,0,0,53,10.16H59a1.42,1.42,0,0,0,1-.38,1.4,1.4,0,0,0,.39-1V5.28l-.13-.13M52,9.12H50.79a1.21,1.21,0,0,1-1.19-1.2V7.19a1.19,1.19,0,0,1,2-.84,1.15,1.15,0,0,1,.35.84Z"/><path class="cls-4" d="M59.56,11.08h-.72l-.13.13V12c0,.09,0,.14.13.14h.72c.09,0,.13,0,.13-.14v-.76l-.13-.13"/><path class="cls-4" d="M62.9,1.59H61.81V1a.29.29,0,0,1,.1-.23.29.29,0,0,1,.23-.1.31.31,0,0,1,.3.2L62.5,1l.09.07h0l.3-.12L63,.9V.82L62.92.68a.78.78,0,0,0-.78-.52.82.82,0,0,0-.6.25.82.82,0,0,0-.25.6v.58H61l-.1.11V2l.1.1H62.9L63,2V1.7l-.1-.11"/><polyline class="cls-4" points="62.34 2.74 61.56 2.74 61.43 2.87 61.43 10.03 61.56 10.16 62.34 10.16 62.47 10.03 62.47 2.87 62.34 2.74"/><path class="cls-4" d="M68.5,6.53h1.92l.1-.1V6.11l-.1-.1h-1.1V5.43a.32.32,0,0,1,.33-.34.3.3,0,0,1,.3.2l.06.15.09.06h.06l.28-.12.06,0V5.24l-.07-.15a.77.77,0,0,0-.78-.52.82.82,0,0,0-.61.25.86.86,0,0,0-.25.61V6H68.5l-.11.1v.32l.11.1"/><polyline class="cls-4" points="82.25 4.06 82.97 4.06 83.1 3.93 83.1 3.17 82.97 3.04 82.25 3.04 82.12 3.17 82.12 3.93 82.25 4.06"/><path class="cls-4" d="M86.85,5.15h-.78l-.13.13V8.75a.39.39,0,0,1-.09.29.39.39,0,0,1-.28.07h-2c-.23,0-.37,0-.43-.1l-.05-.14V5.27L83,5.14h-.78l-.13.13V8.74A.42.42,0,0,1,82,9a.4.4,0,0,1-.27.08H73.11a.64.64,0,0,1-.44-.1l0-.14v-6l-.13-.13h-.79c-.09,0-.13,0-.13.13V8.74a.4.4,0,0,1-.08.29.36.36,0,0,1-.27.08H67.92a1.23,1.23,0,0,1-1.24-1.24,1.27,1.27,0,0,1,.19-.68,1.21,1.21,0,0,1,.51-.47l.36-.18.07-.11,0-.07-.35-.7-.08-.07h0l-.06,0-.35.18a2.35,2.35,0,0,0-1.27,2.09,2.19,2.19,0,0,0,.67,1.62,2.17,2.17,0,0,0,1.61.67h3.3a1.36,1.36,0,0,0,1-.35,1.65,1.65,0,0,0,1.13.35h8.39a1.36,1.36,0,0,0,1-.35,1.64,1.64,0,0,0,1.12.35h1.75A1.31,1.31,0,0,0,87,8.75V5.28l-.13-.13"/><path class="cls-4" d="M86.17,11.08h-.72l-.14.13V12a.13.13,0,0,0,.14.14h.72A.12.12,0,0,0,86.3,12v-.76l-.13-.13"/></g></g></svg>